<svg width="20" height="20" viewBox="0 0 20 20" fill="none" xmlns="http://www.w3.org/2000/svg">
  <path d="M16.435 10.612c-.027-2.77 2.26-4.103 2.363-4.167-1.289-1.885-3.296-2.143-4.007-2.171-1.705-.173-3.327 1.004-4.193 1.004-.865 0-2.204-.979-3.624-.952-1.865.028-3.584 1.084-4.543 2.752-1.936 3.357-.495 8.335 1.391 11.056.923 1.335 2.023 2.834 3.467 2.782 1.414-.055 1.947-.916 3.653-.916 1.706 0 2.185.916 3.624.888 1.495-.027 2.462-1.363 3.385-2.698 1.067-1.546 1.507-3.043 1.534-3.119-.033-.015-2.944-1.13-2.972-4.459h-.078zm-2.783-8.221c.768-.932 1.286-2.226 1.145-3.516-1.107.045-2.448.738-3.243 1.667-.713.827-1.337 2.148-1.17 3.417 1.237.096 2.502-.628 3.268-1.568z" fill="currentColor"/>
</svg>
