<svg width="42" height="42" viewBox="0 0 42 42" fill="none" xmlns="http://www.w3.org/2000/svg">
<path d="M17.0625 2.625C14.8883 2.625 13.125 4.38682 13.125 6.56186V7.875H3.9375C1.76288 7.875 0 9.63788 0 11.8125V15.4459L19.9855 20.7753C20.6502 20.9526 21.3498 20.9526 22.0145 20.7753L42 15.4459V11.8125C42 9.63788 40.2371 7.875 38.0625 7.875H28.875V6.56186C28.875 4.38682 27.1117 2.625 24.9375 2.625H17.0625ZM17.0625 5.25H24.9375C25.6628 5.25 26.25 5.83966 26.25 6.56411V7.875H15.75V6.56186C15.75 5.8374 16.3372 5.25 17.0625 5.25Z" fill="#FFDF20"/>
<path d="M0 32.8125C0 34.9871 1.76288 36.75 3.9375 36.75H38.0625C40.2371 36.75 42 34.9871 42 32.8125V17.9791L21.3382 23.489C21.1166 23.548 20.8834 23.548 20.6618 23.489L0 17.9791V32.8125Z" fill="#FFDF20"/>
</svg>
