<svg width="64" height="64" viewBox="0 0 64 64" fill="none" xmlns="http://www.w3.org/2000/svg">
<path d="M26 4C22.6869 4 20 6.68468 20 9.99902V12H6C2.68629 12 0 14.6863 0 18V50C0 53.3137 2.68629 56 6 56H58C61.3137 56 64 53.3137 64 50V18C64 14.6863 61.3137 12 58 12H44V9.99902C44 6.68468 41.3131 4 38 4H26ZM26 8H38C39.1052 8 40 8.89852 40 10.0025V12H24V9.99902C24 8.89509 24.8948 8 26 8ZM33.546 35.6576L60 28.6032V50C60 51.1046 59.1046 52 58 52H6C4.89543 52 4 51.1046 4 50V28.6032L30.454 35.6576C31.467 35.9277 32.533 35.9277 33.546 35.6576ZM6 16H58C59.1046 16 60 16.8954 60 18V24.4634L32.5153 31.7927C32.1777 31.8827 31.8223 31.8827 31.4847 31.7927L4 24.4634V18C4 16.8954 4.89543 16 6 16Z" fill="#FFDF20"/>
</svg>
