<svg width="60" height="60" viewBox="0 0 60 60" fill="none" xmlns="http://www.w3.org/2000/svg">
<path d="M3.75 7.5C3.75 3.35786 7.10787 0 11.25 0H33.75C37.8921 0 41.25 3.35787 41.25 7.5V37.5C45.3921 37.5 48.75 40.8579 48.75 45V46.875C48.75 47.9105 49.5895 48.75 50.625 48.75C51.6605 48.75 52.5 47.9105 52.5 46.875V30H50.625C49.5895 30 48.75 29.1605 48.75 28.125V16.4063C48.75 15.3707 49.5895 14.5313 50.625 14.5313H56.2329C56.1884 12.7472 56.0306 11.1789 55.4776 9.94997C55.1401 9.19983 54.6738 8.633 54.0012 8.23218C53.3105 7.82064 52.2598 7.5 50.625 7.5C49.5895 7.5 48.75 6.66053 48.75 5.625C48.75 4.58947 49.5895 3.75 50.625 3.75C52.7402 3.75 54.502 4.16535 55.9207 5.01072C57.3574 5.8668 58.2974 7.07778 58.8974 8.41129C60.0021 10.8665 60.0009 13.9052 60 16.2149L60 28.125C60 29.1605 59.1605 30 58.125 30H56.25V46.875C56.25 49.9816 53.7316 52.5 50.625 52.5C47.5184 52.5 45 49.9816 45 46.875V45C45 42.9289 43.3211 41.25 41.25 41.25V56.25H43.125C44.1605 56.25 45 57.0895 45 58.125C45 59.1605 44.1605 60 43.125 60H1.875C0.839466 60 0 59.1605 0 58.125C0 57.0895 0.839466 56.25 1.875 56.25H3.75V7.5ZM13.125 7.5C12.0895 7.5 11.25 8.33947 11.25 9.375V28.125C11.25 29.1605 12.0895 30 13.125 30H31.875C32.9105 30 33.75 29.1605 33.75 28.125V9.375C33.75 8.33947 32.9105 7.5 31.875 7.5H13.125Z" fill="url(#paint0_linear_1_19592)"/>
<defs>
<linearGradient id="paint0_linear_1_19592" x1="30" y1="0" x2="30" y2="60" gradientUnits="userSpaceOnUse">
<stop stop-color="#FFDF20"/>
<stop offset="1" stop-color="#499EFF"/>
</linearGradient>
</defs>
</svg>
