<svg width="24" height="24" viewBox="0 0 24 24" fill="none" xmlns="http://www.w3.org/2000/svg">
<path d="M4.65 1.05C4.79164 0.861146 5.01393 0.75 5.25 0.75H18.75C18.9862 0.75 19.2087 0.861301 19.3503 1.05038L23.8145 7.01039C24.0374 7.28795 24.048 7.68595 23.8301 7.97652L12.6 22.95C12.4584 23.1389 12.2361 23.25 12 23.25C11.7639 23.25 11.5416 23.1389 11.4 22.95L0.15 7.95C-0.05 7.68333 -0.05 7.31667 0.15 7.05L4.65 1.05ZM21.7289 6.72812L19.0199 3.11133L17.856 6.73216L21.7289 6.72812ZM16.2799 6.73381L17.7211 2.25H6.27886L7.72295 6.74273L16.2799 6.73381ZM8.20494 8.24223L12 20.0491L15.7976 8.23431L8.20494 8.24223ZM6.1479 6.74437L4.9798 3.11027L2.25117 6.74843L6.1479 6.74437ZM2.24883 8.24844L9.91824 18.4743L6.62988 8.24387L2.24883 8.24844ZM14.0818 18.4743L21.7664 8.22809L17.3737 8.23267L14.0818 18.4743Z" fill="#155DFC"/>
</svg>
