<svg width="24" height="24" viewBox="0 0 24 24" fill="none" xmlns="http://www.w3.org/2000/svg">
<path d="M12 1.5C7.85786 1.5 4.5 4.85786 4.5 9V10.5H6C6.82843 10.5 7.5 11.1716 7.5 12V16.5C7.5 17.3284 6.82843 18 6 18H4.5C3.67157 18 3 17.3284 3 16.5V9C3 4.02944 7.02944 0 12 0C16.9706 0 21 4.02944 21 9V18C21 20.0711 19.3211 21.75 17.25 21.75H14.0493C13.79 22.1984 13.3052 22.5 12.75 22.5H11.25C10.4216 22.5 9.75 21.8284 9.75 21C9.75 20.1716 10.4216 19.5 11.25 19.5H12.75C13.3052 19.5 13.79 19.8016 14.0493 20.25H17.25C18.4926 20.25 19.5 19.2426 19.5 18H18C17.1716 18 16.5 17.3284 16.5 16.5V12C16.5 11.1716 17.1716 10.5 18 10.5H19.5V9C19.5 4.85786 16.1421 1.5 12 1.5Z" fill="#155DFC"/>
</svg>
