<svg width="60" height="60" viewBox="0 0 60 60" fill="none" xmlns="http://www.w3.org/2000/svg">
<g opacity="0.85">
<path d="M39.4985 38.7511C41.7991 37.4723 41.501 32.5448 38.8348 27.7373C37.691 25.6673 36.2848 23.9911 34.8785 22.8192C33.1969 24.067 31.16 24.7438 29.066 24.7504C26.9688 24.7458 24.9283 24.0689 23.2441 22.8192C21.8379 23.9911 20.4354 25.6692 19.2879 27.7373C16.6198 32.5429 16.3254 37.4723 18.6316 38.7511C19.6591 39.3361 20.7429 38.8973 21.8604 37.8211C21.6511 38.9806 21.5463 40.1566 21.5473 41.3348C21.5473 46.8436 23.6848 51.2948 26.3154 51.2948C27.9016 51.2948 28.6873 49.6729 29.0641 47.1923C29.4391 49.6561 30.2266 51.2948 31.8016 51.2948C34.421 51.2948 36.5754 46.8417 36.5754 41.3348C36.5754 40.0973 36.4591 38.9161 36.2604 37.8229C37.3854 38.9011 38.4654 39.3473 39.4966 38.7548L39.4985 38.7511ZM29.0623 22.8754C30.1261 22.8913 31.1824 22.6955 32.1698 22.2993C33.1572 21.9031 34.056 21.3144 34.8138 20.5676C35.5715 19.8208 36.1732 18.9307 36.5838 17.9492C36.9943 16.9677 37.2056 15.9143 37.2052 14.8504C37.2048 13.7865 36.9928 12.7332 36.5816 11.752C36.1703 10.7708 35.568 9.88111 34.8097 9.13484C34.0514 8.38856 33.1523 7.80056 32.1646 7.40505C31.1769 7.00954 30.1204 6.81443 29.0566 6.83106C26.9503 6.86399 24.9414 7.72405 23.4637 9.22552C21.986 10.727 21.1582 12.7494 21.1589 14.856C21.1597 16.9626 21.9889 18.9845 23.4676 20.4849C24.9464 21.9853 26.9559 22.844 29.0623 22.8754ZM45.176 27.9642C46.8894 27.9141 48.5158 27.1983 49.71 25.9686C50.9043 24.739 51.5723 23.0924 51.5723 21.3782C51.5723 19.6641 50.9043 18.0175 49.71 16.7879C48.5158 15.5582 46.8894 14.8424 45.176 14.7923C43.4288 14.7926 41.7533 15.4869 40.518 16.7225C39.2827 17.9581 38.5889 19.6339 38.5891 21.3811C38.5894 23.1283 39.2837 24.8038 40.5193 26.0391C41.755 27.2744 43.4307 27.9682 45.1779 27.9679L45.176 27.9642ZM53.201 31.9579C52.2598 30.2554 51.1085 28.8792 49.9535 27.9173C48.5719 28.941 46.8992 29.4961 45.1798 29.5017C43.7623 29.5017 42.4423 29.1136 41.2873 28.4704C42.2173 30.5198 42.7929 32.5954 42.8998 34.4517C43.076 37.2942 42.1873 39.4017 40.4098 40.3861C40.0291 40.596 39.6148 40.7381 39.1854 40.8061C39.0785 41.5411 39.0054 42.3061 39.0054 43.1123C39.0054 47.6367 40.7585 51.2911 42.9204 51.2911C44.2216 51.2911 44.8704 49.9598 45.1779 47.9236C45.4835 49.9486 46.1304 51.2911 47.4279 51.2911C49.5748 51.2911 51.3466 47.6348 51.3466 43.1161C51.3466 42.0979 51.2473 41.1286 51.0841 40.2286C52.0066 41.1154 52.8954 41.4811 53.7429 40.9936C55.631 39.9436 55.3873 35.8973 53.1991 31.9561L53.201 31.9579ZM12.9485 27.9642C14.2507 27.9634 15.5235 27.5766 16.6059 26.8526C17.6883 26.1286 18.5318 25.0999 19.0296 23.8966C19.5274 22.6932 19.6573 21.3693 19.4028 20.0922C19.1483 18.8151 18.5208 17.6421 17.5997 16.7216C16.6787 15.801 15.5053 15.1742 14.228 14.9204C12.9508 14.6667 11.627 14.7973 10.4239 15.2958C9.22089 15.7943 8.19267 16.6383 7.46927 17.7211C6.74587 18.804 6.35976 20.077 6.35976 21.3792C6.36026 23.1265 7.05459 24.8021 8.29011 26.0376C9.52563 27.2731 11.2012 27.9674 12.9485 27.9679V27.9642ZM17.7016 40.3804C14.7166 38.7211 14.4429 33.7729 16.8466 28.4667C15.6586 29.1414 14.3167 29.4985 12.9504 29.5036C11.1579 29.5036 9.51538 28.9036 8.16913 27.9173C7.01601 28.8773 5.86663 30.2536 4.92163 31.9542C2.73351 35.8992 2.49351 39.9454 4.38351 40.9917C5.22726 41.4754 6.11788 41.1136 7.03476 40.2304C6.86794 41.1827 6.78325 42.1475 6.78163 43.1142C6.78163 47.6367 8.53476 51.2892 10.6966 51.2892C11.9979 51.2892 12.6466 49.9579 12.9541 47.9236C13.2635 49.9486 13.9104 51.2911 15.2041 51.2911C17.3548 51.2911 19.1229 47.6348 19.1229 43.1161C19.1229 42.3042 19.0479 41.5373 18.941 40.8023C18.5069 40.7346 18.088 40.5912 17.7035 40.3786L17.7016 40.3804Z" fill="url(#paint0_linear_1_19579)"/>
</g>
<defs>
<linearGradient id="paint0_linear_1_19579" x1="29.0616" y1="6.83008" x2="29.0616" y2="51.2948" gradientUnits="userSpaceOnUse">
<stop stop-color="#FFDF20"/>
<stop offset="1" stop-color="#499EFF"/>
</linearGradient>
</defs>
</svg>
