<svg width="20" height="23" viewBox="0 0 20 23" fill="none" xmlns="http://www.w3.org/2000/svg">
<path d="M19.2136 5.28001C19.2365 5.47448 19.233 8.90373 19.211 9.04799C19.1526 9.07531 19.0873 9.06187 19.0242 9.0609C18.1707 9.04755 17.3372 8.9078 16.5231 8.6533C15.6732 8.38749 14.8675 7.99681 14.1324 7.49407C14.0888 7.46437 14.0432 7.43776 13.9982 7.41027C13.9941 7.4078 13.9872 7.41027 13.9805 7.41027C13.9465 7.42574 13.9564 7.45854 13.9556 7.48559C13.9536 7.54446 13.9548 7.60342 13.9548 7.66238C13.9548 10.1306 13.9485 12.5988 13.9564 15.067C13.9652 17.8073 12.3387 20.3177 9.82429 21.4465C9.18068 21.7354 8.50807 21.9187 7.80691 22.0034C4.30977 22.4248 1.07897 20.162 0.215069 16.7968C0.0318232 16.0844 -0.0310267 15.3605 0.0139671 14.6244C0.194384 11.6689 2.27745 9.11305 5.15864 8.33384C5.91063 8.13053 6.67517 8.06326 7.45102 8.1102C7.57434 8.11771 7.69721 8.13371 7.81999 8.14829C7.84792 8.15157 7.87453 8.16544 7.89893 8.17358C7.92377 8.34056 7.93278 10.4454 7.91528 11.8709C7.91466 11.9171 7.90909 11.9632 7.90494 12.0212C7.83944 12.0071 7.78295 11.9965 7.72744 11.9824C7.47617 11.9181 7.21776 11.8859 6.95839 11.8866C5.55368 11.8918 4.29713 12.8455 3.91428 14.1985C3.40574 15.9958 4.53695 17.8493 6.37542 18.1999C8.1345 18.5358 9.67446 17.401 10.0632 15.8493C10.1288 15.5862 10.1615 15.316 10.1605 15.0449V15.0095L10.1626 4.81283C10.1629 3.28128 10.1636 1.74972 10.1645 0.218164C10.1645 0.154253 10.1675 0.0902545 10.1694 0.016797C10.2093 0.0106093 10.2423 0.00168125 10.2755 0.00115087C10.4051 -0.000617061 10.5346 0.000178507 10.6644 0.000178507H13.7214C13.7912 0.000178507 13.8609 0.00265361 13.9281 0.00397955C13.9692 0.0663874 13.9546 0.127027 13.9568 0.183778C14.0031 1.15172 14.271 2.05168 14.8073 2.86122C15.6501 4.13413 16.8275 4.91201 18.3278 5.19311C18.5753 5.23952 18.8307 5.24615 19.0826 5.27135C19.1231 5.2755 19.1633 5.27727 19.2136 5.28001Z" fill="#155DFC"/>
</svg>
