<svg width="111" height="76" viewBox="0 0 111 76" fill="none" xmlns="http://www.w3.org/2000/svg">
<path d="M57.2347 5.59501e-05C48.891 -0.0140065 38.4378 2.62271 28.1253 7.9899C17.8292 13.3571 9.6683 20.3883 4.87768 27.2555C0.0847073 34.0993 -1.21139 40.4743 1.14643 45.0211C3.50658 49.5446 9.47377 52.1461 17.8386 52.1461C26.2035 52.1696 36.6566 49.5211 46.9456 44.1774C57.2581 38.8102 65.4144 31.7555 70.1957 24.9118C75.0003 18.068 76.266 11.693 73.9222 7.14615C71.555 2.62271 65.6019 5.59501e-05 57.2347 5.59501e-05ZM78.7738 16.4743C77.9535 20.0602 76.1722 23.7399 73.6644 27.3258C68.3675 34.8961 59.7191 42.279 48.891 47.904C38.0628 53.5524 27.0706 56.3883 17.8363 56.3883C13.4769 56.3883 9.43627 55.7321 6.0308 54.3493L8.51283 59.1305C10.8753 63.6774 16.8261 66.279 25.1956 66.279C33.5628 66.279 44.016 63.654 54.305 58.2868C64.6175 52.943 72.7738 45.8883 77.555 39.0211C82.3363 32.1774 83.6488 25.8024 81.2816 21.279L78.7738 16.4743ZM85.5238 20.4118C88.1488 26.6696 86.0394 34.2868 81.0238 41.4352C76.5941 47.7868 69.8206 53.9508 61.43 59.1071C64.0316 59.3883 66.7503 59.529 69.516 59.529C81.1175 59.529 91.6175 57.0446 99.0238 53.1774C106.453 49.3102 110.532 44.2477 110.532 39.1383C110.532 34.029 106.453 28.9665 99.0238 25.0993C95.2503 23.1305 90.6566 21.5133 85.5238 20.4118ZM110.532 49.6618C108.141 52.4508 104.86 54.9118 100.993 56.9274C92.7894 61.193 81.7269 63.7477 69.516 63.7477C64.5472 63.7477 59.766 63.3258 55.2894 62.529C49.8519 65.2711 44.391 67.3102 39.141 68.6461C39.4222 68.8102 39.7035 68.9508 40.0081 69.1149C47.4144 72.9821 57.9144 75.4665 69.516 75.4665C81.1175 75.4665 91.6175 72.9821 99.0238 69.1149C106.453 65.2477 110.532 60.1852 110.532 55.0758V49.6618Z" fill="#FFDF20"/>
</svg>
