<svg width="42" height="42" viewBox="0 0 42 42" fill="none" xmlns="http://www.w3.org/2000/svg">
<path d="M20.9987 0L25.379 2.26877L30.2563 3.00798L32.4665 7.41814L35.9778 10.883L35.1737 15.75L35.9778 20.617L32.4665 24.0819L30.2563 28.492L25.379 29.2312L20.9987 31.5L16.6184 29.2312L11.7411 28.492L9.53085 24.0819L6.01953 20.617L6.82367 15.75L6.01953 10.883L9.53085 7.41814L11.7411 3.00798L16.6184 2.26877L20.9987 0Z" fill="#FFDF20"/>
<path d="M10.4987 30.9587V42L20.9987 39.375L31.4987 42V30.9587L26.2011 31.7616L20.9986 34.4562L15.7962 31.7616L10.4987 30.9587Z" fill="#FFDF20"/>
</svg>
