<svg width="184" height="18" viewBox="0 0 184 18" fill="none" xmlns="http://www.w3.org/2000/svg">
<path d="M0.00109374 17.208L6.81709 0.216008H11.2331L17.9771 17.208H13.2971L12.4571 14.808H5.52109L4.65709 17.208H0.00109374ZM6.88909 10.896H11.0891L9.02509 5.06401L6.88909 10.896ZM17.9593 17.208V13.8L26.2633 4.24801H18.1753V0.216008H31.9513V3.60001L23.6713 13.2H31.8073V17.208H17.9593ZM31.9239 17.208L38.7399 0.216008H43.1559L49.8999 17.208H45.2199L44.3799 14.808H37.4439L36.5799 17.208H31.9239ZM38.8119 10.896H43.0119L40.9479 5.06401L38.8119 10.896ZM50.9141 17.208V0.216008H56.4101L60.5621 7.65601L64.6901 0.216008H69.9701V17.208H65.6261V6.38401L61.3301 13.848H59.6261L55.2581 6.38401V17.208H50.9141ZM70.9717 17.208L77.7877 0.216008H82.2037L88.9477 17.208H84.2677L83.4277 14.808H76.4917L75.6277 17.208H70.9717ZM77.8597 10.896H82.0597L79.9957 5.06401L77.8597 10.896ZM88.9299 17.208V13.8L97.2339 4.24801H89.1459V0.216008H102.922V3.60001L94.6419 13.2H102.778V17.208H88.9299ZM102.895 17.208L109.711 0.216008H114.127L120.871 17.208H116.191L115.351 14.808H108.415L107.551 17.208H102.895ZM109.783 10.896H113.983L111.919 5.06401L109.783 10.896ZM124.603 17.616C123.931 17.616 123.347 17.408 122.851 16.992C122.371 16.576 122.131 15.96 122.131 15.144C122.131 14.312 122.379 13.672 122.875 13.224C123.387 12.76 123.971 12.528 124.627 12.528C125.283 12.528 125.851 12.752 126.331 13.2C126.811 13.648 127.051 14.288 127.051 15.12C127.051 15.952 126.811 16.576 126.331 16.992C125.851 17.408 125.275 17.616 124.603 17.616ZM136.346 17.4C134.586 17.4 133.074 17.056 131.81 16.368C130.546 15.664 129.578 14.672 128.906 13.392C128.234 12.096 127.898 10.568 127.898 8.80801C127.898 7.00001 128.242 5.44001 128.93 4.12801C129.634 2.80001 130.61 1.78401 131.858 1.08001C133.122 0.360007 134.594 7.62939e-06 136.274 7.62939e-06C137.602 7.62939e-06 138.81 0.240007 139.898 0.720007C141.002 1.20001 141.898 1.92001 142.586 2.88001C143.274 3.84001 143.682 5.05601 143.81 6.52801H139.706C139.514 5.76001 139.154 5.16801 138.626 4.75201C138.098 4.32001 137.362 4.10401 136.418 4.10401C135.41 4.10401 134.61 4.32801 134.018 4.77601C133.426 5.22401 133.002 5.79201 132.746 6.48001C132.506 7.16801 132.386 7.88001 132.386 8.61601C132.386 9.35201 132.514 10.08 132.77 10.8C133.042 11.52 133.474 12.12 134.066 12.6C134.674 13.064 135.482 13.296 136.49 13.296C137.098 13.296 137.626 13.208 138.074 13.032C138.522 12.84 138.89 12.568 139.178 12.216C139.482 11.848 139.69 11.408 139.802 10.896H144.002C143.906 12.336 143.49 13.544 142.754 14.52C142.018 15.48 141.082 16.2 139.946 16.68C138.826 17.16 137.626 17.4 136.346 17.4ZM153.683 17.4C151.955 17.4 150.443 17.04 149.147 16.32C147.851 15.6 146.843 14.592 146.123 13.296C145.419 11.984 145.067 10.464 145.067 8.73601C145.067 6.96001 145.435 5.42401 146.171 4.12801C146.907 2.81601 147.931 1.80001 149.243 1.08001C150.555 0.360007 152.075 7.62939e-06 153.803 7.62939e-06C155.515 7.62939e-06 157.019 0.352007 158.315 1.05601C159.611 1.76001 160.627 2.76001 161.363 4.05601C162.099 5.33601 162.467 6.85601 162.467 8.61601C162.467 10.344 162.099 11.872 161.363 13.2C160.643 14.512 159.619 15.544 158.291 16.296C156.979 17.032 155.443 17.4 153.683 17.4ZM153.779 13.296C154.803 13.296 155.627 13.064 156.251 12.6C156.875 12.12 157.323 11.528 157.595 10.824C157.883 10.12 158.027 9.42401 158.027 8.73601C158.027 8.22401 157.947 7.70401 157.787 7.17601C157.643 6.63201 157.403 6.12801 157.067 5.66401C156.747 5.20001 156.315 4.82401 155.771 4.53601C155.227 4.24801 154.555 4.10401 153.755 4.10401C152.747 4.10401 151.931 4.33601 151.307 4.80001C150.683 5.24801 150.227 5.82401 149.939 6.52801C149.651 7.23201 149.507 7.96001 149.507 8.71201C149.507 9.46401 149.651 10.192 149.939 10.896C150.243 11.6 150.707 12.176 151.331 12.624C151.971 13.072 152.787 13.296 153.779 13.296ZM164.273 17.208V0.216008H169.769L173.921 7.65601L178.049 0.216008H183.329V17.208H178.985V6.38401L174.689 13.848H172.985L168.617 6.38401V17.208H164.273Z" fill="#155DFC"/>
</svg>
