<svg width="64" height="64" viewBox="0 0 64 64" fill="none" xmlns="http://www.w3.org/2000/svg">
<path d="M34.0598 4.07585C33.376 4.02542 32.689 4 32 4V0C32.7874 0 33.5726 0.029048 34.3541 0.0866886L34.0598 4.07585ZM42.0771 5.8762C40.7942 5.38133 39.4765 4.98162 38.1348 4.68033L39.0113 0.777528C40.5446 1.12185 42.0505 1.57866 43.5166 2.14422L42.0771 5.8762ZM47.556 8.71885C46.9831 8.33607 46.3977 7.9755 45.8012 7.63754L47.7728 4.15721C48.4546 4.54346 49.1236 4.95553 49.7783 5.39297C50.4329 5.83041 51.0697 6.29079 51.6874 6.7729L49.2265 9.9263C48.686 9.50447 48.1289 9.10163 47.556 8.71885ZM54.8924 15.8774C54.1006 14.7532 53.2271 13.6887 52.2789 12.6929L55.1759 9.93471C56.2595 11.0729 57.2578 12.2893 58.1627 13.5741L54.8924 15.8774ZM57.8686 21.2849C57.605 20.6483 57.3186 20.0233 57.0103 19.4109L60.5832 17.6124C60.9355 18.3124 61.2628 19.0267 61.5642 19.7541C61.8655 20.4816 62.1391 21.2181 62.3849 21.9622L58.5868 23.2169C58.3717 22.5659 58.1323 21.9214 57.8686 21.2849ZM59.9916 31.3129C59.9578 29.9382 59.8229 28.5679 59.5878 27.2131L63.5289 26.5292C63.7976 28.0776 63.9518 29.6437 63.9904 31.2147L59.9916 31.3129ZM59.462 37.4625C59.5964 36.7868 59.7055 36.108 59.7895 35.4275L63.7594 35.9172C63.6634 36.6949 63.5387 37.4706 63.3851 38.2429C63.2315 39.0151 63.0499 39.7796 62.8409 40.5348L58.9857 39.468C59.1686 38.8072 59.3276 38.1383 59.462 37.4625ZM55.6559 46.9799C56.3916 45.8182 57.0407 44.6038 57.5979 43.3467L61.2547 44.9677C60.6179 46.4044 59.8761 47.7922 59.0353 49.1199L55.6559 46.9799ZM51.799 51.799C52.2862 51.3118 52.754 50.808 53.2019 50.2888L56.2307 52.9016C55.7189 53.4949 55.1842 54.0707 54.6274 54.6274L51.799 51.799Z" fill="#FFDF20"/>
<path d="M32 4C27.3954 4 22.8618 5.1356 18.8009 7.3062C14.74 9.47681 11.2771 12.6154 8.71886 16.444C6.16066 20.2726 4.58617 24.6731 4.13484 29.2555C3.6835 33.838 4.36927 38.461 6.13138 42.7151C7.8935 46.9693 10.6776 50.7231 14.237 53.6443C17.7964 56.5654 22.0213 58.5637 26.5375 59.462C31.0536 60.3603 35.7216 60.131 40.128 58.7943C44.5343 57.4577 48.543 55.055 51.799 51.799L54.6274 54.6274C50.9063 58.3485 46.3249 61.0945 41.2891 62.6221C36.2533 64.1497 30.9184 64.4118 25.7571 63.3851C20.5958 62.3585 15.7673 60.0748 11.6994 56.7363C7.63151 53.3979 4.44971 49.1077 2.43586 44.2459C0.422018 39.384 -0.361712 34.1005 0.154097 28.8635C0.669905 23.6264 2.46933 18.5973 5.39298 14.2218C8.31663 9.8462 12.2743 6.25921 16.9153 3.77852C21.5564 1.29783 26.7376 0 32 0V4Z" fill="#FFDF20"/>
<path d="M30 12C31.1046 12 32 12.8954 32 14V34.8394L44.9923 42.2635C45.9513 42.8115 46.2845 44.0332 45.7365 44.9923C45.1885 45.9513 43.9668 46.2845 43.0077 45.7365L29.0077 37.7365C28.3846 37.3804 28 36.7177 28 36V14C28 12.8954 28.8954 12 30 12Z" fill="#FFDF20"/>
</svg>
