<svg width="60" height="60" viewBox="0 0 60 60" fill="none" xmlns="http://www.w3.org/2000/svg">
<g opacity="0.85">
<path fill-rule="evenodd" clip-rule="evenodd" d="M1.87502 22.4999C1.30629 22.4999 0.768305 22.758 0.412438 23.2016C0.0565716 23.6453 -0.0787076 24.2264 0.044666 24.7816L6.23955 52.6586C7.19275 56.948 10.9973 59.9999 15.3913 59.9999H37.1087C41.5028 59.9999 45.3073 56.948 46.2605 52.6586L46.7518 50.4476C47.4011 50.5642 48.0689 50.6249 48.75 50.6249C54.9632 50.6249 60 45.5881 60 39.3749C60 34.1569 56.4484 29.7696 51.6297 28.4971L52.4554 24.7816C52.5787 24.2264 52.4435 23.6453 52.0876 23.2016C51.7317 22.758 51.1937 22.4999 50.625 22.4999L1.87502 22.4999ZM48.75 46.8749C48.3466 46.8749 47.9513 46.8432 47.5663 46.7823L50.8152 32.1625C53.9525 33.059 56.25 35.9492 56.25 39.3749C56.25 43.517 52.8922 46.8749 48.75 46.8749Z" fill="url(#paint0_linear_1_19557)"/>
<path d="M16.5002 2.99949L16.4878 3.01629L16.4381 3.08438C16.3936 3.14583 16.3281 3.23749 16.2486 3.35224C16.0885 3.58356 15.8779 3.89978 15.6703 4.24574C15.4592 4.59752 15.2712 4.94722 15.1414 5.25013C15.0462 5.47212 15.0149 5.59506 15.0047 5.63504C15.0023 5.6445 15.0005 5.6497 15.0005 5.6497C15.0069 5.81802 15.079 6.1075 15.3451 6.58057C15.6251 7.07821 16.0141 7.60194 16.5 8.24981L16.5343 8.29557C16.9792 8.88855 17.5107 9.59719 17.9233 10.3306C18.3467 11.0833 18.75 12.0389 18.75 13.1248C18.75 13.8287 18.5072 14.506 18.3054 14.9767C18.0837 15.4941 17.803 16.0038 17.5453 16.4332C17.2841 16.8685 17.026 17.2554 16.8346 17.5319C16.7382 17.6711 16.6573 17.7845 16.5992 17.8647L16.5299 17.9595L16.5097 17.9868L16.5035 17.9951L16.5006 17.999C15.8793 18.8274 14.7034 18.9961 13.875 18.3748C13.0469 17.7537 12.8788 16.5792 13.4993 15.7508L13.5122 15.7333L13.5619 15.6652C13.6064 15.6038 13.6719 15.5121 13.7514 15.3974C13.9115 15.1661 14.1221 14.8498 14.3297 14.5039C14.5408 14.1521 14.7288 13.8024 14.8586 13.4995C14.9538 13.2775 14.9851 13.1546 14.9953 13.1146C14.9977 13.1051 14.9995 13.0999 14.9995 13.0999C14.9931 12.9316 14.921 12.6421 14.6549 12.1691C14.3749 11.6714 13.9859 11.1477 13.5 10.4998L13.4657 10.4541C13.0208 9.86106 12.4893 9.15245 12.0767 8.41905C11.6533 7.66632 11.25 6.71074 11.25 5.62481C11.25 4.92096 11.4928 4.24366 11.6946 3.77293C11.9163 3.25553 12.197 2.74586 12.4547 2.31638C12.7159 1.8811 12.974 1.49419 13.1654 1.2177C13.2618 1.07855 13.3427 0.96513 13.4008 0.884971L13.4965 0.754482L13.4994 0.750633C14.1207 -0.0777938 15.2966 -0.246507 16.125 0.374813C16.9531 0.995878 17.1207 2.17112 16.5002 2.99949Z" fill="url(#paint1_linear_1_19557)"/>
<path d="M27.7502 2.99949L27.7378 3.01629L27.6881 3.08438C27.6436 3.14583 27.5781 3.23749 27.4986 3.35224C27.3385 3.58356 27.1279 3.89978 26.9203 4.24574C26.7092 4.59752 26.5212 4.94722 26.3914 5.25013C26.2962 5.47212 26.2649 5.59506 26.2547 5.63504C26.2523 5.6445 26.2505 5.6497 26.2505 5.6497C26.2569 5.81802 26.329 6.1075 26.5951 6.58057C26.8751 7.07821 27.2641 7.60194 27.75 8.24981L27.7843 8.29557C28.2292 8.88855 28.7607 9.59719 29.1733 10.3306C29.5967 11.0833 30 12.0389 30 13.1248C30 13.8287 29.7572 14.506 29.5554 14.9767C29.3337 15.4941 29.053 16.0038 28.7953 16.4332C28.5341 16.8685 28.276 17.2554 28.0846 17.5319C27.9882 17.6711 27.9073 17.7845 27.8492 17.8647L27.7799 17.9595L27.7597 17.9868L27.7535 17.9951L27.7506 17.999C27.1293 18.8274 25.9534 18.9961 25.125 18.3748C24.2969 17.7537 24.1288 16.5792 24.7493 15.7508L24.7622 15.7333L24.8119 15.6652C24.8564 15.6038 24.9219 15.5121 25.0014 15.3974C25.1615 15.1661 25.3721 14.8498 25.5797 14.5039C25.7908 14.1521 25.9788 13.8024 26.1086 13.4995C26.2038 13.2775 26.2351 13.1546 26.2453 13.1146C26.2477 13.1051 26.2495 13.0999 26.2495 13.0999C26.2431 12.9316 26.171 12.6421 25.9049 12.1691C25.6249 11.6714 25.2359 11.1477 24.75 10.4998L24.7157 10.4541C24.2708 9.86106 23.7393 9.15245 23.3267 8.41905C22.9033 7.66632 22.5 6.71074 22.5 5.62481C22.5 4.92096 22.7428 4.24366 22.9446 3.77293C23.1663 3.25553 23.447 2.74586 23.7047 2.31638C23.9659 1.8811 24.224 1.49419 24.4154 1.2177C24.5118 1.07855 24.5927 0.96513 24.6508 0.884971L24.7465 0.754482L24.7494 0.750633C25.3707 -0.0777938 26.5466 -0.246507 27.375 0.374813C28.2031 0.995878 28.3707 2.17112 27.7502 2.99949Z" fill="url(#paint2_linear_1_19557)"/>
<path d="M39.0002 2.99949L38.9878 3.01629L38.9381 3.08438C38.8936 3.14583 38.8281 3.23749 38.7486 3.35224C38.5885 3.58356 38.3779 3.89978 38.1703 4.24574C37.9592 4.59752 37.7712 4.94722 37.6414 5.25013C37.5462 5.47212 37.5149 5.59506 37.5047 5.63504C37.5023 5.6445 37.5005 5.6497 37.5005 5.6497C37.5069 5.81802 37.579 6.1075 37.8451 6.58057C38.1251 7.07821 38.5141 7.60194 39 8.24981L39.0343 8.29557C39.4791 8.88855 40.0107 9.59719 40.4233 10.3306C40.8467 11.0833 41.25 12.0389 41.25 13.1248C41.25 13.8287 41.0072 14.506 40.8054 14.9767C40.5837 15.4941 40.303 16.0038 40.0453 16.4332C39.7841 16.8685 39.526 17.2554 39.3346 17.5319C39.2382 17.6711 39.1573 17.7845 39.0992 17.8647L39.0299 17.9595L39.0097 17.9868L39.0035 17.9951L39.0006 17.999C38.3793 18.8274 37.2034 18.9961 36.375 18.3748C35.5469 17.7537 35.3788 16.5792 35.9993 15.7508L36.0122 15.7333L36.0619 15.6652C36.1064 15.6038 36.1719 15.5121 36.2514 15.3974C36.4115 15.1661 36.6221 14.8498 36.8297 14.5039C37.0408 14.1521 37.2288 13.8024 37.3586 13.4995C37.4538 13.2775 37.4851 13.1546 37.4953 13.1146C37.4977 13.1051 37.4995 13.0999 37.4995 13.0999C37.4931 12.9316 37.421 12.6421 37.1549 12.1691C36.8749 11.6714 36.4859 11.1477 36 10.4998L35.9657 10.4541C35.5208 9.86106 34.9893 9.15245 34.5767 8.41905C34.1533 7.66632 33.75 6.71074 33.75 5.62481C33.75 4.92096 33.9928 4.24366 34.1946 3.77293C34.4163 3.25553 34.697 2.74586 34.9547 2.31638C35.2159 1.8811 35.474 1.49419 35.6654 1.2177C35.7618 1.07855 35.8427 0.96513 35.9008 0.884971L35.9965 0.754482L35.9994 0.750633C36.6207 -0.0777938 37.7966 -0.246507 38.625 0.374813C39.4531 0.995878 39.6207 2.17112 39.0002 2.99949Z" fill="url(#paint3_linear_1_19557)"/>
</g>
<defs>
<linearGradient id="paint0_linear_1_19557" x1="30" y1="0" x2="30" y2="59.9999" gradientUnits="userSpaceOnUse">
<stop stop-color="#FFDF20"/>
<stop offset="1" stop-color="#499EFF"/>
</linearGradient>
<linearGradient id="paint1_linear_1_19557" x1="30" y1="0" x2="30" y2="59.9999" gradientUnits="userSpaceOnUse">
<stop stop-color="#FFDF20"/>
<stop offset="1" stop-color="#499EFF"/>
</linearGradient>
<linearGradient id="paint2_linear_1_19557" x1="30" y1="0" x2="30" y2="59.9999" gradientUnits="userSpaceOnUse">
<stop stop-color="#FFDF20"/>
<stop offset="1" stop-color="#499EFF"/>
</linearGradient>
<linearGradient id="paint3_linear_1_19557" x1="30" y1="0" x2="30" y2="59.9999" gradientUnits="userSpaceOnUse">
<stop stop-color="#FFDF20"/>
<stop offset="1" stop-color="#499EFF"/>
</linearGradient>
</defs>
</svg>
