<svg width="120" height="120" viewBox="0 0 120 120" fill="none" xmlns="http://www.w3.org/2000/svg">
<path d="M61.9691 22.2696C53.6253 22.2555 43.1722 24.8922 32.8597 30.2594C22.5636 35.6266 14.4027 42.6579 9.61205 49.5251C4.81908 56.3688 3.52299 62.7438 5.8808 67.2907C8.24096 71.8141 14.2081 74.4157 22.573 74.4157C30.9378 74.4391 41.391 71.7907 51.68 66.4469C61.9925 61.0797 70.1488 54.0251 74.93 47.1813C79.7347 40.3376 81.0003 33.9626 78.6566 29.4157C76.2894 24.8922 70.3363 22.2696 61.9691 22.2696ZM83.5081 38.7438C82.6878 42.3297 80.9066 46.0094 78.3988 49.5954C73.1019 57.1657 64.4535 64.5485 53.6253 70.1735C42.7972 75.8219 31.805 78.6579 22.5706 78.6579C18.2113 78.6579 14.1706 78.0016 10.7652 76.6188L13.2472 81.4001C15.6097 85.9469 21.5605 88.5485 29.93 88.5485C38.2972 88.5485 48.7503 85.9235 59.0394 80.5563C69.3519 75.2126 77.5081 68.1579 82.2894 61.2907C87.0707 54.4469 88.3831 48.0719 86.016 43.5485L83.5081 38.7438ZM90.2582 42.6813C92.8832 48.9391 90.7738 56.5563 85.7581 63.7047C81.3285 70.0563 74.555 76.2204 66.1644 81.3766C68.766 81.6579 71.4847 81.7985 74.2503 81.7985C85.8519 81.7985 96.3519 79.3141 103.758 75.4469C111.188 71.5797 115.266 66.5172 115.266 61.4079C115.266 56.2985 111.188 51.236 103.758 47.3688C99.9847 45.4001 95.391 43.7829 90.2582 42.6813ZM115.266 71.9313C112.875 74.7204 109.594 77.1813 105.727 79.1969C97.5238 83.4626 86.4613 86.0172 74.2503 86.0172C69.2816 86.0172 64.5003 85.5954 60.0238 84.7985C54.5863 87.5407 49.1253 89.5797 43.8753 90.9157C44.1566 91.0797 44.4378 91.2204 44.7425 91.3844C52.1488 95.2516 62.6488 97.736 74.2503 97.736C85.8519 97.736 96.3519 95.2516 103.758 91.3844C111.188 87.5172 115.266 82.4547 115.266 77.3454V71.9313Z" fill="#FFDF20"/>
</svg>
