<svg width="64" height="64" viewBox="0 0 64 64" fill="none" xmlns="http://www.w3.org/2000/svg">
<path d="M12 10C12 4.47715 16.4772 0 22 0C27.5228 0 32 4.47715 32 10C32 4.47715 36.4772 0 42 0C47.5228 0 52 4.47715 52 10L52 10.0223C52.0001 10.3017 52.0005 11.1027 51.8487 12H60C62.2091 12 64 13.7909 64 16V24C64 26.2091 62.2091 28 60 28V58C60 61.3137 57.3137 64 54 64H10C6.68629 64 4 61.3137 4 58L4 28C1.79087 28 0 26.2091 0 24V16C0 13.7909 1.79086 12 4 12H12.1513C11.9995 11.1027 11.9999 10.3017 12 10.0223C12 10.0144 12 10.007 12 10ZM16.272 12H28V10C28 6.68629 25.3137 4 22 4C18.6863 4 16 6.68629 16 10C16 10.339 16.0078 11.094 16.1795 11.7238C16.2101 11.8358 16.2418 11.9275 16.272 12ZM36 12H47.728C47.7582 11.9275 47.7899 11.8358 47.8205 11.7238C47.9922 11.094 48 10.339 48 10C48 6.68629 45.3137 4 42 4C38.6863 4 36 6.68629 36 10V12ZM4 16V24H28V16H4ZM36 16V24H60V16H36ZM56 28H36V60H54C55.1046 60 56 59.1046 56 58V28ZM28 60V28H8V58C8 59.1046 8.89543 60 10 60H28Z" fill="#FFDF20"/>
</svg>
