<svg width="60" height="60" viewBox="0 0 60 60" fill="none" xmlns="http://www.w3.org/2000/svg">
<path d="M32.6516 5.62472C31.1872 4.16025 28.8128 4.16025 27.3484 5.62472L2.42417 30.5489C1.69194 31.2811 1.69194 32.4683 2.42417 33.2005C3.15641 33.9328 4.34359 33.9328 5.07583 33.2005L30 8.27637L54.9242 33.2005C55.6564 33.9328 56.8436 33.9328 57.5758 33.2005C58.3081 32.4683 58.3081 31.2811 57.5758 30.5489L48.75 21.7231V9.37472C48.75 8.33918 47.9105 7.49972 46.875 7.49972H43.125C42.0895 7.49972 41.25 8.33918 41.25 9.37472V14.2231L32.6516 5.62472Z" fill="url(#paint0_linear_1_19540)"/>
<path d="M30 12.3481L47.6701 30.0181C47.4066 30.0059 47.1415 29.9997 46.875 29.9997C37.5552 29.9997 30 37.5549 30 46.8747C30 50.3437 31.0468 53.5683 32.8417 56.2497H13.125C10.0184 56.2497 7.5 53.7313 7.5 50.6247V34.8481L30 12.3481Z" fill="url(#paint1_linear_1_19540)"/>
<path d="M46.875 59.9997C54.1237 59.9997 60 54.1235 60 46.8747C60 39.626 54.1237 33.7497 46.875 33.7497C39.6263 33.7497 33.75 39.626 33.75 46.8747C33.75 54.1235 39.6263 59.9997 46.875 59.9997ZM53.1703 43.1519L48.1631 51.4973C47.2217 53.0663 45.0564 53.3328 43.7626 52.039L40.8617 49.138C40.1294 48.4058 40.1294 47.2186 40.8617 46.4864C41.5939 45.7542 42.7811 45.7542 43.5133 46.4864L45.5652 48.5383L49.9547 41.2225C50.4875 40.3346 51.6392 40.0466 52.5272 40.5794C53.4151 41.1122 53.7031 42.2639 53.1703 43.1519Z" fill="url(#paint2_linear_1_19540)"/>
<defs>
<linearGradient id="paint0_linear_1_19540" x1="30.9375" y1="4.52637" x2="30.9375" y2="59.9997" gradientUnits="userSpaceOnUse">
<stop stop-color="#FFDF20"/>
<stop offset="1" stop-color="#499EFF"/>
</linearGradient>
<linearGradient id="paint1_linear_1_19540" x1="30.9375" y1="4.52637" x2="30.9375" y2="59.9997" gradientUnits="userSpaceOnUse">
<stop stop-color="#FFDF20"/>
<stop offset="1" stop-color="#499EFF"/>
</linearGradient>
<linearGradient id="paint2_linear_1_19540" x1="30.9375" y1="4.52637" x2="30.9375" y2="59.9997" gradientUnits="userSpaceOnUse">
<stop stop-color="#FFDF20"/>
<stop offset="1" stop-color="#499EFF"/>
</linearGradient>
</defs>
</svg>
