<svg width="120" height="120" viewBox="0 0 120 120" fill="none" xmlns="http://www.w3.org/2000/svg">
<mask id="mask0_35_3241" style="mask-type:luminance" maskUnits="userSpaceOnUse" x="9" y="9" width="102" height="102">
<path d="M30 24.8175V17.5C30 15.5109 30.7902 13.6032 32.1967 12.1967C33.6032 10.7902 35.5109 10 37.5 10H102.5C104.489 10 106.397 10.7902 107.803 12.1967C109.21 13.6032 110 15.5109 110 17.5V82.5C110 84.4891 109.21 86.3968 107.803 87.8033C106.397 89.2098 104.489 90 102.5 90H95.0425" stroke="white" stroke-width="2"/>
<path d="M87.5 25H17.5C13.3579 25 10 28.3579 10 32.5V102.5C10 106.642 13.3579 110 17.5 110H87.5C91.6421 110 95 106.642 95 102.5V32.5C95 28.3579 91.6421 25 87.5 25Z" fill="white" stroke="white" stroke-width="2" stroke-linejoin="round"/>
<path d="M46.0998 57.775L59.3298 44C62.9573 40.3725 68.9223 40.45 72.6498 44.18C76.3773 47.91 76.4573 53.8725 72.8298 57.5L68.0548 62.5575M33.6648 71.8675C32.3898 73.1425 29.7523 75.6925 29.7523 75.6925C26.1223 79.32 26.0223 85.7875 29.7523 89.5175C33.4773 93.2425 39.4423 93.325 43.0723 89.695L55.9823 77.975" stroke="black" stroke-width="2" stroke-linecap="round" stroke-linejoin="round"/>
<path d="M46.6562 70.82C44.9949 69.1704 43.99 66.9731 43.8287 64.6375C43.7338 63.3274 43.9212 62.0123 44.3784 60.7809C44.8356 59.5495 45.5518 58.4307 46.4787 57.5M55.8012 64.6525C59.5287 68.38 59.6087 74.345 55.9812 77.975" stroke="black" stroke-width="2" stroke-linecap="round" stroke-linejoin="round"/>
</mask>
<g mask="url(#mask0_35_3241)">
<path d="M0 0H120V120H0V0Z" fill="#FFDF20"/>
</g>
</svg>
