<svg width="23" height="23" viewBox="0 0 23 23" fill="none" xmlns="http://www.w3.org/2000/svg">
<path d="M11.0267 0C8.03226 0 7.65647 0.0130933 6.48039 0.0666142C5.3066 0.120365 4.5054 0.306195 3.80434 0.578852C3.07917 0.860468 2.46403 1.23718 1.85118 1.85026C1.23787 2.46311 0.861157 3.07825 0.578622 3.8032C0.305275 4.50448 0.119216 5.30592 0.0663841 6.47924C0.0137821 7.65532 0 8.03134 0 11.0258C0 14.0202 0.013323 14.3948 0.0666142 15.5709C0.120594 16.7447 0.306424 17.5459 0.578852 18.2469C0.860698 18.9721 1.23741 19.5873 1.85049 20.2001C2.46311 20.8134 3.07825 21.191 3.80297 21.4727C4.50448 21.7453 5.30591 21.9311 6.47947 21.9849C7.65555 22.0384 8.03111 22.0515 11.0253 22.0515C14.0199 22.0515 14.3946 22.0384 15.5707 21.9849C16.7444 21.9311 17.5466 21.7453 18.2481 21.4727C18.973 21.191 19.5873 20.8134 20.1999 20.2001C20.8132 19.5873 21.1899 18.9721 21.4724 18.2472C21.7435 17.5459 21.9295 16.7444 21.9847 15.5711C22.0375 14.395 22.0513 14.0202 22.0513 11.0258C22.0513 8.03134 22.0375 7.65555 21.9847 6.47947C21.9295 5.30569 21.7435 4.50448 21.4724 3.80343C21.1899 3.07825 20.8132 2.46311 20.1999 1.85026C19.5866 1.23695 18.9733 0.860239 18.2474 0.578852C17.5445 0.306195 16.7428 0.120365 15.5691 0.0666142C14.393 0.0130933 14.0186 0 11.0232 0H11.0267ZM10.0376 1.98693C10.3311 1.98647 10.6587 1.98693 11.0267 1.98693C13.9706 1.98693 14.3195 1.9975 15.482 2.05033C16.557 2.09949 17.1405 2.27912 17.5291 2.43003C18.0436 2.62987 18.4105 2.86876 18.7962 3.25466C19.1821 3.64057 19.4209 4.00809 19.6213 4.52263C19.7722 4.91083 19.952 5.49427 20.0009 6.56928C20.0538 7.73158 20.0653 8.08073 20.0653 11.0232C20.0653 13.9657 20.0538 14.3149 20.0009 15.4772C19.9518 16.5522 19.7722 17.1356 19.6213 17.5238C19.4214 18.0384 19.1821 18.4047 18.7962 18.7904C18.4103 19.1763 18.0439 19.4152 17.5291 19.615C17.1409 19.7667 16.557 19.9458 15.482 19.995C14.3197 20.0478 13.9706 20.0593 11.0267 20.0593C8.08257 20.0593 7.73365 20.0478 6.57135 19.995C5.49634 19.9454 4.91289 19.7657 4.524 19.6148C4.00947 19.415 3.64194 19.1761 3.25604 18.7902C2.87014 18.4043 2.63125 18.0377 2.43095 17.5229C2.28003 17.1347 2.10018 16.5513 2.05125 15.4763C1.99842 14.314 1.98785 13.9648 1.98785 11.0205C1.98785 8.07614 1.99842 7.72883 2.05125 6.56653C2.10041 5.49152 2.28003 4.90807 2.43095 4.51941C2.63079 4.00488 2.87014 3.63735 3.25604 3.25145C3.64194 2.86555 4.00947 2.62666 4.524 2.42636C4.91266 2.27475 5.49634 2.09558 6.57135 2.0462C7.58848 2.00026 7.98265 1.98647 10.0376 1.98418V1.98693ZM16.9121 3.81767C16.1817 3.81767 15.589 4.40961 15.589 5.1403C15.589 5.87075 16.1817 6.46339 16.9121 6.46339C17.6426 6.46339 18.2352 5.87075 18.2352 5.1403C18.2352 4.40984 17.6426 3.81721 16.9121 3.81721V3.81767ZM11.0267 5.36357C7.89972 5.36357 5.36449 7.89881 5.36449 11.0258C5.36449 14.1527 7.89972 16.6868 11.0267 16.6868C14.1536 16.6868 16.6879 14.1527 16.6879 11.0258C16.6879 7.89881 14.1534 5.36357 11.0264 5.36357H11.0267ZM11.0267 7.3505C13.0563 7.3505 14.7019 8.99587 14.7019 11.0258C14.7019 13.0554 13.0563 14.701 11.0267 14.701C8.99679 14.701 7.35142 13.0554 7.35142 11.0258C7.35142 8.99587 8.99679 7.3505 11.0267 7.3505Z" fill="#1447E6"/>
</svg>
