<svg width="64" height="64" viewBox="0 0 64 64" fill="none" xmlns="http://www.w3.org/2000/svg">
<path d="M39.0098 24.7725C41.4032 27.1695 45.9303 26.5218 49.1215 23.3258C52.3126 20.1298 52.9593 15.5958 50.566 13.1988C48.1726 10.8018 43.6455 11.4495 40.4543 14.6455C37.2632 17.8415 36.6164 22.3755 39.0098 24.7725Z" fill="#FFDF20"/>
<path d="M63.2449 13.2483C61.7941 19.3844 57.9073 27.7527 48.6821 38.1198L47.7255 47.753C47.4693 50.0617 46.4363 52.2144 44.7962 53.8569L35.2669 63.4007C34.6451 64.0234 33.6953 64.1778 32.9088 63.7839C32.1223 63.3901 31.6757 62.5364 31.8001 61.6647L32.8836 54.0684C33.0435 52.9469 32.8285 51.6955 32.3555 50.2436C32.0519 49.312 31.7161 48.4887 31.3602 47.6163C31.2526 47.3526 31.1432 47.0843 31.0323 46.8073C27.7714 46.0187 24.7207 44.1582 22.2662 41.6999C19.8112 39.2413 17.9533 36.1852 17.1662 32.9185C16.8879 32.807 16.6187 32.6969 16.3541 32.5888C15.4851 32.2337 14.6649 31.8985 13.7355 31.595C12.2856 31.1215 11.0361 30.9062 9.91654 31.0664L2.3318 32.1516C1.46133 32.2761 0.608976 31.8288 0.215737 31.0411C-0.177502 30.2535 -0.023392 29.3022 0.598376 28.6795L10.1277 19.1357C11.7677 17.4931 13.9171 16.4585 16.2223 16.202L16.2466 16.1994L25.8471 15.2472C36.0189 6.20392 44.3478 2.32848 50.4932 0.831381C54.0554 -0.0364102 56.8542 -0.0972335 58.8125 0.0810622C59.7898 0.170043 60.5528 0.318115 61.0921 0.452301C61.3617 0.519366 61.5752 0.582897 61.7314 0.633728C62.4699 0.874055 62.8469 1.15551 63.1364 1.81058L63.1384 1.81501C63.1796 1.90929 63.2167 2.0057 63.2519 2.10239C63.3082 2.25745 63.3786 2.46864 63.4535 2.73515C63.6035 3.26845 63.7711 4.02198 63.8807 4.989C64.1004 6.92735 64.084 9.69955 63.2449 13.2483ZM43.934 43.1467L44.0929 42.9873L43.6635 47.3121C43.5078 48.6932 42.8886 49.9805 41.9072 50.9635L36.7114 56.1671L36.9282 54.6471C37.2172 52.6215 36.7923 50.6704 36.2396 48.9742C36.0499 48.3921 35.8206 47.7767 35.5834 47.1694C38.5348 46.9108 41.4332 45.6513 43.934 43.1467ZM20.8217 19.9992C18.3211 22.5036 17.0635 25.406 16.8051 28.3617C16.1982 28.1241 15.5832 27.8944 15.0021 27.7047C13.3087 27.1516 11.3608 26.7263 9.33873 27.0156L7.82098 27.2328L13.0167 22.0291C13.9981 21.0462 15.2835 20.4261 16.6624 20.2701L20.9789 19.842L20.8217 19.9992ZM58.4426 4.1562C56.925 4.01802 54.5777 4.04762 51.4589 4.80738C45.2263 6.32573 35.7931 10.7919 23.7107 22.8926C21.2324 25.3747 20.5162 28.255 20.9657 31.0963C21.3931 33.7985 22.8975 36.5453 25.1552 38.8065C27.4123 41.067 30.1542 42.5735 32.8515 43.0021C35.6893 43.453 38.5661 42.7359 41.045 40.2532C53.3598 27.9197 57.8103 18.4756 59.2691 12.3054C59.9987 9.21964 59.9879 6.92267 59.8211 5.45049C59.7698 4.99816 59.7035 4.62135 59.6385 4.32119C59.3222 4.26066 58.9229 4.19993 58.4426 4.1562Z" fill="#FFDF20"/>
<path d="M28.0355 48.5551C25.4496 47.1864 22.9871 45.3155 20.8217 43.1467C18.5236 40.8451 16.5604 38.2086 15.1761 35.4447C10.7685 39.4121 7.31572 55.6611 7.82101 56.1672C8.3217 56.6686 23.562 52.5819 28.0355 48.5551Z" fill="#FFDF20"/>
</svg>
