<svg width="40" height="40" viewBox="0 0 40 40" fill="none" xmlns="http://www.w3.org/2000/svg">
<g clip-path="url(#clip0_1_14668)">
<rect width="40" height="40" rx="20" fill="#F93939"/>
<path d="M50.6667 0H5.33333C2.38781 0 0 2.38781 0 5.33333V34.6667C0 37.6122 2.38781 40 5.33333 40H50.6667C53.6122 40 56 37.6122 56 34.6667V5.33333C56 2.38781 53.6122 0 50.6667 0Z" fill="#F93939"/>
<path fill-rule="evenodd" clip-rule="evenodd" d="M0 10.6667H56V29.3333H0V10.6667Z" fill="#FFDA2C"/>
<path fill-rule="evenodd" clip-rule="evenodd" d="M24.0013 16.592V23.312C24.0013 25.1787 22.2093 26.672 20.0013 26.672H14.668C12.4653 26.6667 10.668 25.1653 10.668 23.3067V16.5867C10.668 15.0613 11.8626 13.7867 13.5053 13.3733C14.0013 11.9867 15.5266 13.2293 17.3346 13.2293C19.1533 13.2293 20.668 11.9947 21.164 13.376C22.8013 13.8 24.0013 15.0773 24.0013 16.592Z" fill="#D4AF2C"/>
<path fill-rule="evenodd" clip-rule="evenodd" d="M24 18.6667H26.6667V26.6667H24V18.6667ZM8 18.6667H10.6667V26.6667H8V18.6667Z" fill="#CBCBCB"/>
<path fill-rule="evenodd" clip-rule="evenodd" d="M24 24H26.6667V26.6667H24V24ZM8 24H10.6667V26.6667H8V24Z" fill="#1A47B8"/>
<path fill-rule="evenodd" clip-rule="evenodd" d="M24 16H26.6667V18.6667H24V16ZM8 16H10.6667V18.6667H8V16Z" fill="#D4AF2C"/>
<path fill-rule="evenodd" clip-rule="evenodd" d="M13.332 16H15.9987V20H13.332V16ZM18.6654 21.3333H21.332V25.3333H18.6654V21.3333Z" fill="#AF010D"/>
<path fill-rule="evenodd" clip-rule="evenodd" d="M18.668 16H21.3346V20H18.668V16Z" fill="#AE6A3E"/>
<path fill-rule="evenodd" clip-rule="evenodd" d="M13.332 21.3333H15.9987V25.3333H13.332V21.3333Z" fill="#FFDA2C"/>
<path fill-rule="evenodd" clip-rule="evenodd" d="M15.9987 16L13.332 13.3333H21.332L18.6654 16H15.9987Z" fill="#AF010D"/>
<path fill-rule="evenodd" clip-rule="evenodd" d="M16 10.6667H18.6667V13.3333H16V10.6667Z" fill="#D4AF2C"/>
</g>
<defs>
<clipPath id="clip0_1_14668">
<rect width="40" height="40" rx="20" fill="white"/>
</clipPath>
</defs>
</svg>
