<svg width="60" height="60" viewBox="0 0 60 60" fill="none" xmlns="http://www.w3.org/2000/svg">
<g opacity="0.85">
<path d="M18.2318 19.7865L14.6464 26.9573C13.986 28.2781 15.0411 29.8198 16.513 29.7013C19.9203 29.4268 25.3245 29.0625 30 29.0625C34.6755 29.0625 40.0797 29.4268 43.487 29.7013C44.9589 29.8198 46.014 28.278 45.3536 26.9573L41.7682 19.7865C41.4506 19.1513 40.8014 18.75 40.0912 18.75H19.9088C19.1986 18.75 18.5494 19.1513 18.2318 19.7865Z" fill="url(#paint0_linear_1_19575)"/>
<path d="M15 37.5C15 39.5711 13.3211 41.25 11.25 41.25C9.17893 41.25 7.5 39.5711 7.5 37.5C7.5 35.4289 9.17893 33.75 11.25 33.75C13.3211 33.75 15 35.4289 15 37.5Z" fill="url(#paint1_linear_1_19575)"/>
<path d="M52.5 37.5C52.5 39.5711 50.8211 41.25 48.75 41.25C46.6789 41.25 45 39.5711 45 37.5C45 35.4289 46.6789 33.75 48.75 33.75C50.8211 33.75 52.5 35.4289 52.5 37.5Z" fill="url(#paint2_linear_1_19575)"/>
<path d="M18.75 37.5C18.75 35.4289 20.4289 33.75 22.5 33.75H37.5C39.5711 33.75 41.25 35.4289 41.25 37.5C41.25 39.5711 39.5711 41.25 37.5 41.25H22.5C20.4289 41.25 18.75 39.5711 18.75 37.5Z" fill="url(#paint3_linear_1_19575)"/>
<path d="M22.5 3.75C20.4289 3.75 18.75 5.42893 18.75 7.5V11.25H18.0705C14.3202 11.25 10.9308 13.485 9.45349 16.932L6.48386 23.8611C6.20189 24.5191 5.69584 25.0558 5.0556 25.3759C3.18523 26.3111 1.85139 28.0574 1.44128 30.1079L0.182056 36.4041C0.0609815 37.0094 0 37.6253 0 38.2426V39.7914C0 42.8438 1.46374 45.5767 3.75 47.282V54.375C3.75 55.4105 4.58947 56.25 5.625 56.25H13.125C14.1605 56.25 15 55.4105 15 54.375V49.3574C19.8436 49.5374 25.2923 49.6875 30 49.6875C34.7077 49.6875 40.1564 49.5374 45 49.3574V54.375C45 55.4105 45.8395 56.25 46.875 56.25H54.375C55.4105 56.25 56.25 55.4105 56.25 54.375V47.282C58.5363 45.5767 60 42.8438 60 39.7914V38.2426C60 37.6253 59.939 37.0094 59.8179 36.4041L58.5587 30.1079C58.1486 28.0574 56.8148 26.3111 54.9444 25.3759C54.3042 25.0558 53.7981 24.5191 53.5161 23.8611L50.5465 16.932C49.0692 13.485 45.6798 11.25 41.9295 11.25H41.25V7.5C41.25 5.42893 39.5711 3.75 37.5 3.75H22.5ZM18.0705 15H41.9295C44.1797 15 46.2133 16.341 47.0997 18.4092L50.0694 25.3383C50.7007 26.8115 51.8338 28.0132 53.2674 28.73C54.1027 29.1477 54.6984 29.9276 54.8815 30.8434L56.1408 37.1395C56.2134 37.5027 56.25 37.8722 56.25 38.2426V39.7914C56.25 42.778 53.9278 45.2224 50.9704 45.3569C45.1394 45.622 36.773 45.9375 30 45.9375C23.227 45.9375 14.8606 45.622 9.02958 45.3569C6.07221 45.2224 3.75 42.778 3.75 39.7914V38.2426C3.75 37.8722 3.78659 37.5027 3.85923 37.1395L5.11846 30.8434C5.30162 29.9276 5.89732 29.1477 6.73265 28.73C8.1662 28.0132 9.29929 26.8115 9.93065 25.3383L12.9003 18.4092C13.7867 16.341 15.8203 15 18.0705 15Z" fill="url(#paint4_linear_1_19575)"/>
</g>
<defs>
<linearGradient id="paint0_linear_1_19575" x1="30" y1="3.75" x2="30" y2="56.25" gradientUnits="userSpaceOnUse">
<stop stop-color="#FFDF20"/>
<stop offset="1" stop-color="#499EFF"/>
</linearGradient>
<linearGradient id="paint1_linear_1_19575" x1="30" y1="3.75" x2="30" y2="56.25" gradientUnits="userSpaceOnUse">
<stop stop-color="#FFDF20"/>
<stop offset="1" stop-color="#499EFF"/>
</linearGradient>
<linearGradient id="paint2_linear_1_19575" x1="30" y1="3.75" x2="30" y2="56.25" gradientUnits="userSpaceOnUse">
<stop stop-color="#FFDF20"/>
<stop offset="1" stop-color="#499EFF"/>
</linearGradient>
<linearGradient id="paint3_linear_1_19575" x1="30" y1="3.75" x2="30" y2="56.25" gradientUnits="userSpaceOnUse">
<stop stop-color="#FFDF20"/>
<stop offset="1" stop-color="#499EFF"/>
</linearGradient>
<linearGradient id="paint4_linear_1_19575" x1="30" y1="3.75" x2="30" y2="56.25" gradientUnits="userSpaceOnUse">
<stop stop-color="#FFDF20"/>
<stop offset="1" stop-color="#499EFF"/>
</linearGradient>
</defs>
</svg>
