<svg width="23" height="23" viewBox="0 0 23 23" fill="none" xmlns="http://www.w3.org/2000/svg">
<path d="M22.0513 11.0256C22.0513 17.1149 17.1149 22.0513 11.0256 22.0513C4.93635 22.0513 0 17.1149 0 11.0256C0 4.93635 4.93635 0 11.0256 0C17.1149 0 22.0513 4.93635 22.0513 11.0256ZM11.4208 8.13967C10.3484 8.58571 8.2051 9.50892 4.9909 10.9093C4.46896 11.1168 4.19555 11.3199 4.17066 11.5184C4.12859 11.854 4.54879 11.9861 5.12098 12.166C5.19881 12.1905 5.27946 12.2159 5.36213 12.2427C5.92509 12.4257 6.68235 12.6398 7.07602 12.6483C7.43312 12.656 7.83169 12.5088 8.27171 12.2067C11.2748 10.1795 12.8251 9.15483 12.9224 9.13274C12.9911 9.11716 13.0862 9.09756 13.1507 9.15486C13.2151 9.21216 13.2088 9.32068 13.202 9.3498C13.1603 9.52725 11.5109 11.0607 10.6574 11.8542C10.3913 12.1016 10.2025 12.2771 10.1639 12.3172C10.0775 12.407 9.9894 12.4919 9.90474 12.5735C9.38174 13.0777 8.98955 13.4557 9.92645 14.0732C10.3767 14.3699 10.737 14.6152 11.0964 14.86C11.4889 15.1273 11.8804 15.3939 12.387 15.726C12.5161 15.8106 12.6393 15.8984 12.7594 15.984C13.2162 16.3097 13.6266 16.6023 14.1336 16.5556C14.4282 16.5285 14.7326 16.2515 14.8871 15.4252C15.2524 13.4726 15.9704 9.24179 16.1363 7.49838C16.1508 7.34564 16.1325 7.15016 16.1178 7.06434C16.1032 6.97853 16.0725 6.85627 15.9609 6.76576C15.8288 6.65857 15.6249 6.63596 15.5337 6.63757C15.119 6.64487 14.4827 6.86611 11.4208 8.13967Z" fill="#1447E6"/>
</svg>
