<svg width="60" height="60" viewBox="0 0 60 60" fill="none" xmlns="http://www.w3.org/2000/svg">
<path d="M30 0C13.4315 0 0 13.4315 0 30C0 46.5685 13.4315 60 30 60C46.5685 60 60 46.5685 60 30C60 13.4315 46.5685 0 30 0ZM7.65158 16.2231C8.8706 21.2057 17.1444 25.745 21.5869 28.1823C23.3893 29.1711 24.561 29.814 24.375 30C24.0724 30.3027 23.7664 30.5939 23.4666 30.8793C21.909 32.362 20.518 33.6862 20.625 35.625C20.7563 38.0039 22.9418 38.7137 25.1783 39.4402C27.3431 40.1434 29.5559 40.8621 30 43.125C30.3072 44.6904 29.7205 46.8305 29.1739 48.824C28.3695 51.7582 27.6521 54.375 30 54.375C35.625 52.5 44.244 42.429 45 35.625C45.5178 30.9651 37.5 28.125 31.875 26.25C30.0826 25.6525 29.0419 26.554 28.1614 27.3167C27.5158 27.8759 26.9564 28.3605 26.25 28.125C24.5801 27.5684 16.875 20.625 20.625 18.75C23.5529 17.2861 24.1948 18.1082 25.2279 19.4314C25.518 19.8029 25.839 20.214 26.25 20.625C28.5319 21.766 28.731 20.1299 28.9596 18.2515C29.1066 17.043 29.2659 15.7341 30 15C31.6261 13.374 34.743 12.0328 37.6038 10.8019C40.276 9.65213 42.7248 8.59852 43.5262 7.49865C51.1506 12.0917 56.25 20.4503 56.25 30C56.25 44.4975 44.4975 56.25 30 56.25C15.5025 56.25 3.75 44.4975 3.75 30C3.75 24.9471 5.17765 20.2277 7.65158 16.2231Z" fill="url(#paint0_linear_1_19564)"/>
<defs>
<linearGradient id="paint0_linear_1_19564" x1="30" y1="0" x2="30" y2="60" gradientUnits="userSpaceOnUse">
<stop stop-color="#FFDF20"/>
<stop offset="1" stop-color="#499EFF"/>
</linearGradient>
</defs>
</svg>
