<svg width="57" height="53" viewBox="0 0 57 53" fill="none" xmlns="http://www.w3.org/2000/svg">
<path d="M0 1.875C0 0.839466 0.839466 0 1.875 0H7.5C8.36038 0 9.11034 0.585558 9.31902 1.42025L10.839 7.5H54.375C54.9524 7.5 55.4976 7.76601 55.8529 8.2211C56.2082 8.6762 56.3341 9.26961 56.194 9.82975L50.569 32.3298C50.3603 33.1644 49.6104 33.75 48.75 33.75H15C14.1396 33.75 13.3897 33.1644 13.181 32.3298L6.03604 3.75H1.875C0.839466 3.75 0 2.91053 0 1.875ZM11.7765 11.25L13.6515 18.75H18.75V11.25H11.7765ZM22.5 11.25V18.75H30V11.25H22.5ZM33.75 11.25V18.75H41.25V11.25H33.75ZM45 11.25V18.75H50.0985L51.9735 11.25H45ZM49.161 22.5H45V30H47.286L49.161 22.5ZM41.25 22.5H33.75V30H41.25V22.5ZM30 22.5H22.5V30H30V22.5ZM18.75 22.5H14.589L16.464 30H18.75V22.5ZM18.75 41.25C16.6789 41.25 15 42.9289 15 45C15 47.0711 16.6789 48.75 18.75 48.75C20.8211 48.75 22.5 47.0711 22.5 45C22.5 42.9289 20.8211 41.25 18.75 41.25ZM11.25 45C11.25 40.8579 14.6079 37.5 18.75 37.5C22.8921 37.5 26.25 40.8579 26.25 45C26.25 49.1421 22.8921 52.5 18.75 52.5C14.6079 52.5 11.25 49.1421 11.25 45ZM45 41.25C42.9289 41.25 41.25 42.9289 41.25 45C41.25 47.0711 42.9289 48.75 45 48.75C47.0711 48.75 48.75 47.0711 48.75 45C48.75 42.9289 47.0711 41.25 45 41.25ZM37.5 45C37.5 40.8579 40.8579 37.5 45 37.5C49.1421 37.5 52.5 40.8579 52.5 45C52.5 49.1421 49.1421 52.5 45 52.5C40.8579 52.5 37.5 49.1421 37.5 45Z" fill="url(#paint0_linear_1_19537)"/>
<defs>
<linearGradient id="paint0_linear_1_19537" x1="28.125" y1="0" x2="28.125" y2="52.5" gradientUnits="userSpaceOnUse">
<stop stop-color="#FFDF20"/>
<stop offset="1" stop-color="#499EFF"/>
</linearGradient>
</defs>
</svg>
